<svg xmlns="http://www.w3.org/2000/svg" viewBox="0 0 1200 1500" role="img" aria-label="abstract depth field">
  <rect width="1200" height="1500" fill="#111"/>
  <g opacity=".72">
    <path d="M0 1020c180-92 332-102 456-30 138 80 290 52 456-84 96-78 192-114 288-108v702H0z" fill="#2b2b2b"/>
    <path d="M0 1116c196-72 358-64 486 24 122 84 268 78 438-18 110-62 202-82 276-60v438H0z" fill="#3a3a3a"/>
    <path d="M0 1248c192-44 356-28 492 48 118 66 260 72 426 18 118-38 212-44 282-18v204H0z" fill="#555"/>
  </g>
  <g fill="none" stroke="#d8d8d3" stroke-width="2" opacity=".16">
    <path d="M120 0v1500M360 0v1500M600 0v1500M840 0v1500M1080 0v1500"/>
    <path d="M0 180h1200M0 360h1200M0 540h1200M0 720h1200M0 900h1200M0 1080h1200M0 1260h1200"/>
  </g>
  <g opacity=".45">
    <circle cx="874" cy="328" r="94" fill="#f1f1ed"/>
    <circle cx="874" cy="328" r="68" fill="#cfcfc8"/>
  </g>
</svg>
